<svg width="678" height="678" viewBox="0 0 678 678" fill="none" xmlns="http://www.w3.org/2000/svg">
<path d="M374.977 569.747L375.308 569.29L107.181 373.054L303.086 105.369L570.771 301.289L374.535 569.416L374.977 569.747L375.308 569.29L374.977 569.747L375.434 570.078L572.332 301.037L302.85 103.808L105.621 373.29L375.103 570.535L375.434 570.078L374.977 569.747Z" fill="#EA4335"/>
<path d="M375.56 573.499L375.891 573.057L103.43 373.637L302.519 101.617L574.523 300.707L375.119 573.168L375.56 573.499L375.891 573.057L375.56 573.499L376.017 573.83L576.099 300.47L302.267 100.057L101.869 373.874L375.686 574.287L376.017 573.83L375.56 573.499Z" fill="#EA4335"/>
<path d="M376.647 580.449L376.805 580.229L96.0848 374.772L301.384 94.2723L581.868 299.572L376.411 580.292L376.647 580.449L376.805 580.229L376.647 580.449L376.868 580.623L582.656 299.446L301.258 93.5L95.2967 374.898L376.695 580.844L376.868 580.623L376.647 580.449Z" fill="#EA4335"/>
<path d="M420.292 558.02L420.403 557.768L118.498 418.338L257.802 116.686L559.455 255.99L420.04 557.91L420.292 558.02L420.403 557.768L420.292 558.02L420.545 558.146L560.211 255.722L257.534 115.945L117.742 418.606L420.418 558.398L420.545 558.146L420.292 558.02Z" fill="#FBBC04"/>
<path d="M418.984 554.474L419.095 554.221L122.045 417.029L259.111 120.232L555.908 257.314L418.716 554.363L418.984 554.474L419.236 554.6L556.649 257.03L258.843 119.491L121.304 417.313L419.11 554.852L419.236 554.6L418.984 554.474Z" fill="#FBBC04"/>
<path d="M417.739 551.101L418.085 550.329L126.159 415.517L260.624 124.362L551.794 258.828L416.966 550.739L417.739 551.101L418.495 551.448L554.016 258.008L259.804 122.124L123.936 416.337L418.149 552.204L418.495 551.448L417.739 551.101Z" fill="#FBBC04"/>
<path d="M180.024 511.112L512.82 496.532L512.945 496.526L512.94 496.402L498.344 163.336L498.339 163.211L498.214 163.216L165.132 177.812L165.007 177.817L165.013 177.942L179.609 511.008L179.614 511.134L179.74 511.127L180.023 511.112L180.024 511.112L180.024 511.112ZM180.392 510.292L165.851 178.576L497.564 164.055L512.101 495.752L180.392 510.292Z" fill="#FBBC04" stroke="#FBBC04" stroke-width="0.25"/>
<path d="M570.378 290.477L571.071 291.675L572.19 292.495L571.497 291.297L570.378 290.477ZM578.747 303.828L578.385 304.332L578.684 304.852L579.047 304.363L578.747 303.828Z" fill="#FBBC04"/>
<path d="M99.19 369.523L98.8275 370.012L99.1427 370.548L99.5052 370.059L99.19 369.523ZM105.495 381.66L106.188 382.858L107.307 383.678L106.614 382.48L105.495 381.66Z" fill="#EA4335"/>
<path d="M121.808 409.842L122.139 410.425L122.439 409.81L122.092 409.211L121.808 409.842Z" fill="#FBBC04"/>
<path d="M123.432 412.679L123.779 413.263L124.062 412.648L123.731 412.049L123.432 412.679Z" fill="#FBBC04"/>
<path d="M127.861 420.339L128.743 420.749L128.255 419.898L127.372 419.488L127.861 420.339Z" fill="#FBBC04"/>
<path d="M126.695 417.615L127.028 417.757L126.837 417.44L126.695 417.615Z" fill="#FBBC04"/>
<path d="M130.178 424.359L131.06 424.769L130.572 423.918L129.705 423.508L130.178 424.359Z" fill="#FBBC04"/>
<path d="M497.636 163.357H497.006L497.321 163.909H497.683V164.587L498.282 165.627V164.429L497.636 163.357ZM173.492 177.543H172.83L172.499 178.126H173.161L173.492 177.543ZM166.194 189.065L165.674 189.979V191.019L166.21 190.105L166.194 189.065ZM507.077 496.107H506.415L506.084 496.691H506.746L507.077 496.107ZM179.639 508.906V510.12L180.143 510.987H180.774L180.458 510.435H180.222V509.978L179.639 508.906Z" fill="#34A853"/>
<path d="M389.099 662.569L389.556 661.939L16.5186 388.926L289.09 16.5188L661.481 289.074L388.469 662.112L389.099 662.569L389.73 663.026L663.657 288.743L288.743 14.3436L14.3434 389.257L389.257 663.657L389.73 663.026L389.099 662.569Z" fill="#34A853"/>
<path d="M668.175 288.047L390.883 666.935L390.656 666.768L390.426 666.6L667.102 288.565L667.398 288.162L666.994 287.867L288.565 10.8978L288.162 10.6025L287.867 11.0059L10.8978 389.434L10.6025 389.838L11.0059 390.133L389.028 666.816L388.869 667.034L388.701 667.263L9.82487 389.968L288.047 9.82489L668.175 288.047Z" fill="#34A853" stroke="#34A853"/>
<path d="M391.401 677.464L391.637 677.149L1.08757 391.322L286.694 1.08757L676.912 286.694L391.085 677.228L391.401 677.464L391.637 677.149L391.401 677.464L391.716 677.701L678 286.521L286.521 0L0 391.479L391.479 678L391.716 677.701L391.401 677.464Z" fill="#34A853"/>
<path d="M452.115 646.271L452.289 645.908L32.2647 451.926L226.073 32.264L645.751 226.073L451.769 646.097L452.115 646.271L452.289 645.908L452.115 646.271L452.478 646.428L646.775 225.695L225.695 31.2238L31.2244 452.304L452.305 646.775L452.478 646.428L452.115 646.271Z" fill="#4285F4"/>
<path d="M450.303 641.323L450.46 640.976L37.1981 450.114L227.902 37.1988L640.802 227.903L449.956 641.165L450.303 641.323L450.46 640.976L450.303 641.323L450.65 641.496L641.842 227.509L227.508 36.1743L36.1736 450.493L450.492 641.843L450.65 641.496L450.303 641.323Z" fill="#4285F4"/>
<path d="M448.569 636.625L449.058 635.569L42.9356 448.002L230.014 42.936L635.065 230.015L447.513 636.137L448.569 636.625L449.058 635.569L448.569 636.625L449.625 637.114L638.17 228.864L228.864 39.8309L39.8305 449.137L449.137 638.17L449.625 637.114L448.569 636.625Z" fill="#4285F4"/>
<path d="M355.983 315.695L321.528 350.151L361.421 390.044L336.376 415.09L237.832 316.546L297.333 257.045L317.099 276.811L282.643 311.266L301.699 330.322L336.155 295.867L355.983 315.695Z" fill="#C01466"/>
<path d="M351.538 352.847L386.341 318.044L311.314 243.033L336.659 218.255L434.919 316.531L375.071 376.379L351.538 352.847Z" fill="#C01466"/>
<path d="M336.376 459.744L251.182 374.472L260.025 365.646L336.376 442.06L411.308 367.064L420.15 375.891L336.376 459.744Z" fill="#C01466"/>
</svg>
